<?xml version="1.0" standalone="no"?><!DOCTYPE svg PUBLIC "-//W3C//DTD SVG 1.1//EN" "http://www.w3.org/Graphics/SVG/1.1/DTD/svg11.dtd"><svg t="1743759012675" class="icon" viewBox="0 0 1024 1024" version="1.1" xmlns="http://www.w3.org/2000/svg" p-id="11203" xmlns:xlink="http://www.w3.org/1999/xlink" width="200" height="200"><path d="M472.615385 0m39.384615 0l0 0q39.384615 0 39.384615 39.384615l0 236.307693q0 39.384615-39.384615 39.384615l0 0q-39.384615 0-39.384615-39.384615l0-236.307693q0-39.384615 39.384615-39.384615Z" fill="#FF807A" p-id="11204"></path><path d="M0 551.384615m0-39.384615l0 0q0-39.384615 39.384615-39.384615l236.307693 0q39.384615 0 39.384615 39.384615l0 0q0 39.384615-39.384615 39.384615l-236.307693 0q-39.384615 0-39.384615-39.384615Z" fill="#FF807A" p-id="11205"></path><path d="M103.795591 120.142877m27.849128-27.849129l0 0q27.849129-27.849129 55.698258 0l167.094771 167.094772q27.849129 27.849129 0 55.698257l0 0q-27.849129 27.849129-55.698257 0l-167.094772-167.094771q-27.849129-27.849129 0-55.698258Z" fill="#FF807A" p-id="11206"></path><path d="M708.923077 551.384615m0-39.384615l0 0q0-39.384615 39.384615-39.384615l236.307693 0q39.384615 0 39.384615 39.384615l0 0q0 39.384615-39.384615 39.384615l-236.307693 0q-39.384615 0-39.384615-39.384615Z" fill="#FF807A" p-id="11207"></path><path d="M697.607209 342.994059m-27.849129-27.849128l0 0q-27.849129-27.849129 0-55.698257l167.094772-167.094772q27.849129-27.849129 55.698257 0l0 0q27.849129 27.849129 0 55.698257l-167.094772 167.094772q-27.849129 27.849129-55.698257 0Z" fill="#FF807A" p-id="11208"></path><path d="M472.615385 708.923077m39.384615 0l0 0q39.384615 0 39.384615 39.384615l0 236.307693q0 39.384615-39.384615 39.384615l0 0q-39.384615 0-39.384615-39.384615l0-236.307693q0-39.384615 39.384615-39.384615Z" fill="#FF807A" p-id="11209"></path><path d="M326.587721 681.066265m27.849128 27.849128l0 0q27.849129 27.849129 0 55.698257l-167.094771 167.094772q-27.849129 27.849129-55.698258 0l0 0q-27.849129-27.849129 0-55.698257l167.094772-167.094772q27.849129-27.849129 55.698257 0Z" fill="#FF807A" p-id="11210"></path><path d="M920.26053 903.856838m-27.849129 27.849129l0 0q-27.849129 27.849129-55.698257 0l-167.094771-167.094772q-27.849129-27.849129 0-55.698257l0 0q27.849129-27.849129 55.698257 0l167.094771 167.094772q27.849129 27.849129 0 55.698257Z" fill="#FF807A" p-id="11211"></path></svg>